<?xml version="1.0" standalone="no"?>
<!DOCTYPE svg PUBLIC "-//W3C//DTD SVG 20010904//EN"
 "http://www.w3.org/TR/2001/REC-SVG-20010904/DTD/svg10.dtd">
<svg version="1.0" xmlns="http://www.w3.org/2000/svg"
 width="2048.000000pt" height="2048.000000pt" viewBox="0 0 2048.000000 2048.000000"
 preserveAspectRatio="xMidYMid meet">
<metadata>
Created by potrace 1.14, written by Peter Selinger 2001-2017
</metadata>
<g transform="translate(0.000000,2048.000000) scale(0.100000,-0.100000)"
fill="#000000" stroke="none">
<path d="M10899 12362 c-37 -24 -58 -47 -69 -77 -12 -32 -12 -3078 0 -3109 11
-28 40 -60 70 -77 21 -12 497 -14 3240 -15 3165 -2 3216 -2 3257 18 23 10 50
31 60 46 17 26 18 91 18 1582 0 1461 -1 1557 -17 1581 -10 14 -35 35 -56 47
l-38 21 -3219 0 c-2984 -1 -3222 -2 -3246 -17z"/>
<path d="M2909 11871 c-4 -148 0 -2250 4 -2257 6 -10 933 -11 1017 0 66 8 138
20 175 30 199 52 332 136 453 289 45 56 102 147 118 187 3 8 10 24 14 35 15
34 62 169 66 190 2 11 7 36 10 55 3 19 8 44 12 55 3 11 7 31 8 45 1 14 5 59 9
100 12 121 8 280 -9 415 -53 407 -280 722 -596 823 -159 52 -202 55 -777 57
l-503 1 -1 -25z m1026 -260 c103 -16 116 -19 160 -38 99 -43 192 -125 264
-236 61 -95 94 -196 120 -372 9 -62 7 -364 -3 -425 -3 -19 -8 -53 -12 -75 -11
-70 -52 -194 -85 -258 -77 -153 -172 -237 -321 -285 -117 -38 -202 -45 -563
-46 l-280 0 -2 869 c-2 575 1 871 8 875 16 11 639 3 714 -9z"/>
<path d="M5845 11890 c-5 -9 -50 -126 -154 -400 -56 -146 -105 -273 -111 -282
-5 -10 -10 -23 -10 -29 0 -6 -6 -25 -14 -42 -8 -18 -31 -77 -51 -132 -21 -55
-41 -109 -46 -120 -20 -46 -79 -200 -79 -208 0 -4 -8 -26 -19 -50 -10 -23 -29
-69 -41 -102 -13 -33 -29 -73 -35 -90 -7 -16 -18 -43 -23 -60 -15 -44 -101
-267 -111 -290 -5 -11 -18 -45 -29 -75 -25 -70 -107 -280 -133 -343 -11 -27
-18 -52 -15 -55 4 -3 76 -6 161 -6 122 -1 156 2 160 13 3 7 46 126 96 265 50
138 105 288 122 333 l30 82 478 -1 478 0 12 -32 c7 -17 13 -34 14 -38 1 -5 4
-10 5 -13 1 -3 3 -8 5 -12 1 -5 6 -19 12 -33 6 -14 29 -74 52 -135 23 -60 49
-128 57 -150 9 -22 20 -50 25 -62 5 -13 14 -33 19 -45 6 -13 21 -54 34 -91 13
-37 26 -71 30 -74 5 -6 346 -11 346 -5 0 1 -25 64 -56 140 -31 75 -80 198
-110 272 -30 74 -59 144 -64 155 -5 11 -30 72 -56 135 -25 63 -54 133 -64 155
-9 22 -23 56 -30 75 -7 19 -21 53 -31 75 -9 22 -36 87 -59 145 -23 58 -50 123
-59 145 -10 22 -24 56 -31 75 -7 19 -21 53 -31 75 -9 22 -36 87 -59 145 -23
58 -53 132 -67 165 -14 33 -29 69 -33 80 -5 11 -16 38 -25 60 -9 22 -49 119
-88 215 l-72 175 -163 0 c-90 0 -165 -2 -167 -5z m274 -585 c5 -11 21 -51 34
-90 14 -38 37 -101 52 -140 14 -38 38 -101 52 -140 14 -38 31 -83 38 -100 7
-16 22 -55 33 -85 11 -30 32 -86 46 -124 15 -38 24 -71 21 -74 -7 -7 -756 -9
-760 -2 -1 3 20 64 47 135 27 72 55 146 62 165 7 19 25 69 40 110 15 41 31 84
37 95 5 11 19 47 30 80 12 33 30 85 41 115 25 70 72 229 89 300 16 68 16 67
18 83 2 6 27 -60 56 -148 30 -88 58 -169 64 -180z"/>
<path d="M6949 11895 c-1 0 -3 -60 -4 -132 l-3 -133 27 -1 c14 -1 184 -2 376
-3 l350 -1 1 -1003 c1 -552 4 -1006 8 -1009 10 -11 287 -9 294 2 3 5 6 460 6
1010 l1 1000 375 0 375 0 5 80 c3 44 3 105 0 135 l-5 55 -902 0 c-497 0 -904
0 -904 0z"/>
<path d="M9414 11775 c-26 -66 -62 -160 -81 -210 -38 -100 -86 -224 -104 -270
-7 -16 -13 -34 -15 -40 -1 -5 -62 -163 -134 -350 -73 -187 -144 -374 -160
-415 -15 -41 -69 -183 -120 -315 -113 -291 -120 -309 -158 -410 -17 -44 -37
-97 -46 -117 -9 -20 -12 -38 -8 -40 4 -2 77 -3 162 -3 l154 1 42 112 c23 62
39 112 37 112 -3 0 -1 6 4 13 6 6 24 53 42 102 17 50 53 149 79 220 l47 130
478 1 478 2 9 -22 c5 -11 30 -75 55 -141 25 -66 52 -136 60 -155 7 -19 29 -75
48 -125 19 -49 49 -126 66 -170 l31 -80 170 0 c93 0 170 4 170 8 0 5 -50 131
-111 280 -107 260 -274 669 -361 882 -22 55 -46 114 -53 130 -8 17 -23 55 -35
85 -12 30 -27 69 -35 85 -7 17 -27 66 -45 110 -18 44 -40 98 -50 120 -9 22
-67 164 -129 315 l-112 276 -164 0 -165 -1 -46 -120z m257 -288 c26 -78 61
-180 79 -227 17 -47 42 -114 55 -150 13 -36 52 -137 85 -225 34 -88 63 -164
64 -170 1 -5 4 -14 8 -20 9 -15 48 -128 48 -140 0 -7 -118 -9 -362 -8 -447 1
-413 0 -401 16 5 6 20 41 32 77 13 36 29 77 37 92 8 14 14 35 14 46 0 12 4 23
9 26 5 3 12 18 15 33 4 16 18 55 31 88 13 33 38 98 55 145 17 47 35 94 40 105
38 84 127 394 129 449 2 35 14 7 62 -137z"/>
</g>
</svg>
